<?xml version="1.0" encoding="utf-8"?>
<!-- Generator: Adobe Illustrator 18.1.1, SVG Export Plug-In . SVG Version: 6.00 Build 0)  -->
<svg version="1.1" id="Layer_1" xmlns="http://www.w3.org/2000/svg" xmlns:xlink="http://www.w3.org/1999/xlink" x="0px" y="0px"
	 viewBox="0 0 143.5 44.3" enable-background="new 0 0 143.5 44.3" xml:space="preserve">
<g>
	<g>
		<path fill="#FFFFFF" d="M4.2,21.8c0,0,0.7-1.8,2.5-1.8s1.8,2.2,1.8,2.2s0.2,3.1-1.8,3.3C6.7,25.5,3.4,25,4.2,21.8z"/>
		<path fill="#FFFFFF" d="M39.6,21.8c0,0-0.7-1.8-2.5-1.8c-1.8,0-1.8,2.3-1.8,2.3s-0.2,3,1.8,3.2C37.1,25.5,40.5,25,39.6,21.8z"/>
		<path fill="#FFFFFF" d="M37.4,29l1.1-16.6c0-0.4-0.3-0.8-0.8-0.8c-2.3,0.1-4.4,0.2-6.2,0.6c-0.1-1.7-0.4-3.8-1.3-5.9l1.3-1.3
			c0.1-0.1,0.1-0.1,0.1-0.2s-0.1-0.1-0.1-0.2c-0.1-0.1-0.1-0.1-0.2-0.1c-0.1,0-0.1,0.1-0.2,0.1L30.4,5l0.1-0.3c0-0.1,0-0.1-0.1-0.2
			c-0.1-0.1-0.1-0.1-0.2-0.1c-0.1-0.1-0.3,0.1-0.4,0.2l-0.1,0.3l-0.3-0.8c-0.1-0.1-0.1-0.1-0.1-0.2c-0.1-0.1-0.1-0.1-0.2,0
			S28.9,4,28.8,4c-0.1,0.1-0.1,0.1,0,0.2L29.5,6c-0.1,0-0.1,0.1-0.1,0.1C28.8,6.6,27.5,8,27,9.2c-1.1-0.6-3-1-5.1-1
			c-2,0-3.8,0.4-4.9,0.9c-0.5-1.2-1.8-2.5-2.3-3c-0.1-0.1-0.1-0.1-0.1-0.1l0.6-1.7c0.1-0.1,0.1-0.1,0-0.2S15,3.9,14.9,3.9
			c-0.1-0.1-0.1-0.1-0.2,0C14.6,4,14.5,4,14.5,4.1l-0.3,0.8l-0.1-0.3c-0.1-0.1-0.2-0.3-0.4-0.2c-0.1,0-0.1,0.1-0.2,0.1
			c-0.1,0.1-0.1,0.1-0.1,0.2l0.1,0.3L13,4.4c-0.1-0.1-0.1-0.1-0.2-0.1c-0.1,0-0.1,0.1-0.2,0.1c-0.1,0.1-0.1,0.1-0.1,0.2
			s0.1,0.1,0.1,0.2l1.3,1.3c-0.9,2.1-1.2,4.2-1.3,5.9c-1.8-0.3-3.9-0.6-6.4-0.6c-0.4,0-0.8,0.3-0.8,0.8l1.5,19.8
			c-0.8,4.4,3.1,7,6.7,7.5c3.8,0.5,8.8-1.9,11.2-3.3c1.9-1,3,0.1,3.4,0.6c1.1,1.6,3,2.7,5.1,2.7c3.4,0,6.1-2.7,6.1-6.1
			C39.6,31.8,38.7,30.1,37.4,29z M36.7,28.5c-0.8-0.5-1.8-0.9-2.8-0.9l0,0c-0.1,0-0.3,0-0.4,0h0c-0.1,0-0.1,0-0.2,0
			c-3.9,0.1-5.9,0.7-14.5,4.4c-6.9,3-10.1,1.1-11.2,0L6.9,14.1c0-0.4,0.3-0.7,0.7-0.7c9.4,0.1,13.8,3.6,14.2,4
			c0.5-0.4,4.8-3.9,14.2-4c0.4,0,0.7,0.3,0.7,0.7L36.7,28.5z"/>
	</g>
	<g>
		<path fill="#FFFFFF" d="M68.6,9V8.4c0-0.4,0.1-0.7,0.4-1S69.6,7,70,7c0.4,0,0.7,0.1,1,0.4s0.4,0.6,0.4,1V9c0,0.4-0.1,0.7-0.4,1
			c-0.2,0.2-0.6,0.4-1,0.4c-0.4,0-0.7-0.1-1-0.4C68.8,9.7,68.6,9.4,68.6,9z M69.3,9c0,0.2,0.1,0.4,0.2,0.6c0.1,0.1,0.3,0.2,0.5,0.2
			c0.2,0,0.4-0.1,0.5-0.2c0.1-0.1,0.2-0.4,0.2-0.6V8.4c0-0.2-0.1-0.4-0.2-0.6c-0.1-0.1-0.3-0.2-0.5-0.2c-0.2,0-0.4,0.1-0.5,0.2
			c-0.1,0.1-0.2,0.4-0.2,0.6V9z"/>
		<path fill="#FFFFFF" d="M73.3,10.3V7h0.6v1.4h1.3V7h0.6v3.3h-0.6V9h-1.3v1.3H73.3z"/>
		<path fill="#FFFFFF" d="M77.8,10.3V9.8h0.1c0.2,0,0.3-0.1,0.4-0.3c0-0.2,0.1-0.5,0.1-1V7h2.2v3.3H80V7.5H79v1
			c0,0.6-0.1,1.1-0.3,1.4C78.5,10.2,78.2,10.3,77.8,10.3L77.8,10.3L77.8,10.3z"/>
		<path fill="#FFFFFF" d="M82.4,10.3L83.5,7h0.7l1.1,3.3h-0.7l-0.2-0.7h-1l-0.2,0.7H82.4z M83.5,9.1h0.7l-0.3-1.1l0,0L83.5,9.1z"/>
		<path fill="#FFFFFF" d="M87,10.3V7h0.6v2.2l0,0L89,7h0.6v3.3H89V8.1l0,0l-1.3,2.2H87z M87.6,6L87.6,6h0.5c0,0.1,0,0.1,0.1,0.2
			c0.1,0.1,0.1,0.1,0.2,0.1c0.1,0,0.1-0.1,0.2-0.1c0-0.1,0-0.1,0-0.2h0.5l0,0c0,0.2-0.1,0.3-0.2,0.4c-0.1,0.1-0.3,0.2-0.5,0.2
			c-0.2,0-0.4-0.1-0.5-0.2C87.6,6.4,87.6,6.2,87.6,6z"/>
		<path fill="#FFFFFF" d="M91.7,10.3V7h0.6v1.4h1.3V7h0.6v3.3h-0.6V9h-1.3v1.3H91.7z"/>
		<path fill="#FFFFFF" d="M98.9,10.3V7h0.6v2.8h1.1V7h0.6v2.8h1.1V7h0.6v3.3H98.9z"/>
		<path fill="#FFFFFF" d="M105.1,10.3V7h0.6v1.3h0.2l0.9-1.3h0.8l-1.1,1.5l1.2,1.7h-0.8L106,8.9h-0.2v1.4H105.1z"/>
		<path fill="#FFFFFF" d="M109.2,9V8.4c0-0.4,0.1-0.7,0.4-1s0.6-0.4,1-0.4c0.4,0,0.7,0.1,1,0.4s0.4,0.6,0.4,1V9c0,0.4-0.1,0.7-0.4,1
			c-0.2,0.2-0.6,0.4-1,0.4c-0.4,0-0.7-0.1-1-0.4C109.4,9.7,109.2,9.4,109.2,9z M109.9,9c0,0.2,0,0.4,0.2,0.6
			c0.1,0.1,0.3,0.2,0.5,0.2c0.2,0,0.4-0.1,0.5-0.2c0.1-0.1,0.2-0.4,0.2-0.6V8.4c0-0.2-0.1-0.4-0.2-0.6c-0.1-0.1-0.3-0.2-0.5-0.2
			c-0.2,0-0.4,0.1-0.5,0.2c-0.1,0.1-0.2,0.4-0.2,0.6V9z"/>
		<path fill="#FFFFFF" d="M113.6,10.3V9.8h0.1c0.2,0,0.3-0.1,0.4-0.3c0.1-0.2,0.1-0.5,0.1-1V7h2.2v3.3h-0.6V7.5h-0.9v1
			c0,0.6-0.1,1.1-0.3,1.4C114.4,10.2,114.1,10.3,113.6,10.3L113.6,10.3L113.6,10.3z"/>
		<path fill="#FFFFFF" d="M118.3,10.3l1.1-3.3h0.7l1.1,3.3h-0.7l-0.2-0.7h-1l-0.2,0.7H118.3z M119.4,9.1h0.7l-0.3-1.1l0,0L119.4,9.1
			z"/>
	</g>
	<path fill="#FFFFFF" d="M51.9,13.5c-0.9-0.1-1.7,0.6-1.7,1.5v8.3v2.6v8.3c0,0.9,0.8,1.7,1.7,1.5c5.9-0.8,27.8-2.8,86.4,0.2
		c0.9,0.1,1.6-0.6,1.6-1.5v-8.5c0,0,0-0.7,0-2.6v-8.5c0-0.9-0.7-1.6-1.6-1.5C79.8,16.4,57.8,14.3,51.9,13.5z"/>
	<g>
		<path fill="#159447" d="M54.7,17.9l7.7-0.1l0.5,3l-2.1,2.7l3,3.5v0.3l-2.3,3.4l-6.4,0.6l-0.5-3.9h4.1l0.2-0.4L57,25.4l0.1-1.9
			l1.4-1.9l-3.8,0.1L54.7,17.9z"/>
		<path fill="#159447" d="M75.4,31.2l-3.9,0.1l-0.2-2.7l-3.1,0.2l-0.1,2.3l-3.7-0.1l0.6-7.7l2.7-5.6l3.8-0.1l3.1,5.1L75.4,31.2z
			 M71,25.6l-0.1-1.7l-1.1-2.5l-1.1,2.4l-0.2,1.9L71,25.6z"/>
		<path fill="#010101" d="M85.7,26.7L80.9,27l0.1,4.4l-4.2-0.1V18l8.1-0.2l1.8,1.8l0.2,5.2L85.7,26.7z M80.9,24l2.3-0.1l-0.1-2.5
			l-2-0.1l-0.2,0.2V24z"/>
		<path fill="#010101" d="M98.8,31.3l-3.9,0.1l-0.2-2.6L91.6,29l-0.1,2.3l-3.7-0.1l0.6-7.7l2.7-5.6l3.8-0.1l3.1,5.1L98.8,31.3z
			 M94.4,25.6l-0.1-1.7l-1.1-2.5L92,23.8l-0.2,1.9L94.4,25.6z"/>
		<path fill="#010101" d="M99.8,18.1l7.7-0.1l0.5,3l-2.1,2.7l3,3.5v0.3l-2.3,3.4l-6.4,0.6l-0.5-3.9h4.1l0.2-0.4l-1.9-1.8l0.1-1.9
			l1.4-1.9l-3.8,0.1L99.8,18.1z"/>
		<path fill="#010101" d="M109.8,26.3l-0.1-8.3l4.1-0.1l0.1,4.8l2.3,0.2v-5.2l4,0.1l0.2,11.4l-2,2.4l-8.5-0.2l0.3-3.8l5.9,0.3
			l0.1-1.7H109.8z"/>
		<path fill="#010101" d="M126,17.9l2.6,5.1l2.6-5.1l3.5,0.1l0.4,13.1l-4,0.2l-0.2-7l-1.1,2.4l-2.3,0.1l-1.2-2.5l-0.1,6.9l-4-0.1
			l0.3-13L126,17.9z"/>
	</g>
</g>
</svg>
